<?xml version="1.0"?>
<svg width="24" height="24" xmlns="http://www.w3.org/2000/svg" xmlns:svg="http://www.w3.org/2000/svg">
 <g class="layer">
  <title>Layer 1</title>
  <path d="m21.552,7.749c0,-0.217 -0.008,-0.428 -0.018,-0.636c0.976,-0.693 1.797,-1.558 2.466,-2.554l0,-0.001c-0.893,0.391 -1.843,0.651 -2.835,0.777c1.02,-0.609 1.799,-1.566 2.165,-2.719c-0.951,0.567 -2.001,0.967 -3.12,1.191c-0.903,-0.962 -2.19,-1.557 -3.594,-1.557c-2.724,0 -4.917,2.211 -4.917,4.921c0,0.39 0.033,0.765 0.114,1.122c-4.09,-0.2 -7.71,-2.16 -10.142,-5.147c-0.424,0.737 -0.674,1.58 -0.674,2.487c0,1.704 0.877,3.214 2.186,4.089c-0.791,-0.015 -1.566,-0.245 -2.223,-0.606l0,0.054c0,2.391 1.705,4.377 3.942,4.835c-0.752,0.206 -1.678,0.198 -2.221,0.078c0.637,1.948 2.447,3.381 4.597,3.428c-1.674,1.309 -3.8,2.098 -6.101,2.098c-0.403,0 -0.79,-0.018 -1.177,-0.067c2.18,1.405 4.762,2.208 7.548,2.208c9.054,0 14.004,-7.5 14.004,-14.001z" fill="#ffffff" id="svg_1"/>
 </g>
</svg>