<?xml version="1.0"?>
<svg width="96.828" height="96.827" xmlns="http://www.w3.org/2000/svg" xmlns:svg="http://www.w3.org/2000/svg">
 <g class="layer">
  <title>Layer 1</title>
  <g id="svg_1">
   <g id="svg_2">
    <path d="m62.617,0l-23.092,0c-10.29,0 -17.413,2.256 -23.824,7.552c-5.042,4.35 -8.051,10.672 -8.051,16.912c0,9.614 7.33,19.831 20.913,19.831c1.306,0 2.752,-0.134 4.028,-0.253l-0.188,0.457c-0.546,1.308 -1.063,2.542 -1.063,4.468c0,3.75 1.809,6.063 3.558,8.298l0.22,0.283l-0.391,0.027c-5.609,0.384 -16.049,1.1 -23.675,5.787c-9.007,5.355 -9.707,13.145 -9.707,15.404c0,8.988 8.376,18.06 27.09,18.06c21.76,0 33.146,-12.005 33.146,-23.863c0.002,-8.771 -5.141,-13.101 -10.6,-17.698l-4.605,-3.582c-1.423,-1.179 -3.195,-2.646 -3.195,-5.364c0,-2.672 1.772,-4.436 3.336,-5.992l0.163,-0.165c4.973,-3.917 10.609,-8.358 10.609,-17.964c0,-9.658 -6.035,-14.649 -8.937,-17.048l7.663,0c0.094,0 0.188,-0.026 0.266,-0.077l6.601,-4.15c0.188,-0.119 0.276,-0.348 0.214,-0.562c-0.059,-0.214 -0.257,-0.361 -0.479,-0.361zm-28.003,91.535c-13.264,0 -22.176,-6.195 -22.176,-15.416c0,-6.021 3.645,-10.396 10.824,-12.997c5.749,-1.935 13.17,-2.031 13.244,-2.031c1.257,0 1.889,0 2.893,0.126c9.281,6.605 13.743,10.073 13.743,16.678c-0.001,8.414 -7.101,13.64 -18.528,13.64zm-0.125,-50.779c-11.132,0 -15.752,-14.633 -15.752,-22.468c0,-3.984 0.906,-7.042 2.77,-9.351c2.023,-2.531 5.487,-4.166 8.825,-4.166c10.221,0 15.873,13.738 15.873,23.233c0,1.498 0,6.055 -3.148,9.22c-2.117,2.113 -5.56,3.532 -8.568,3.532z" fill="#ffffff" id="svg_3" stroke="#ffffff"/>
    <path d="m94.982,45.223l-12.168,0l0,-12.125c0,-0.276 -0.225,-0.5 -0.5,-0.5l-5.234,0c-0.276,0 -0.5,0.224 -0.5,0.5l0,12.125l-12.107,0c-0.276,0 -0.5,0.224 -0.5,0.5l0,5.304c0,0.275 0.224,0.5 0.5,0.5l12.107,0l0,12.203c0,0.275 0.224,0.5 0.5,0.5l5.234,0c0.275,0 0.5,-0.225 0.5,-0.5l0,-12.205l12.168,0c0.276,0 0.5,-0.223 0.5,-0.5l0,-5.302c0,-0.277 -0.223,-0.5 -0.5,-0.5z" fill="#ffffff" id="svg_4" stroke="#ffffff"/>
   </g>
  </g>
  <g id="svg_5"/>
  <g id="svg_6"/>
  <g id="svg_7"/>
  <g id="svg_8"/>
  <g id="svg_9"/>
  <g id="svg_10"/>
  <g id="svg_11"/>
  <g id="svg_12"/>
  <g id="svg_13"/>
  <g id="svg_14"/>
  <g id="svg_15"/>
  <g id="svg_16"/>
  <g id="svg_17"/>
  <g id="svg_18"/>
  <g id="svg_19"/>
 </g>
</svg>